<?xml version="1.0" standalone="no"?>
<!DOCTYPE svg PUBLIC "-//W3C//DTD SVG 20010904//EN"
 "http://www.w3.org/TR/2001/REC-SVG-20010904/DTD/svg10.dtd">
<svg version="1.0" xmlns="http://www.w3.org/2000/svg"
 width="16.000000pt" height="16.000000pt" viewBox="0 0 16.000000 16.000000"
 preserveAspectRatio="xMidYMid meet">
<metadata>
Created by potrace 1.11, written by Peter Selinger 2001-2013
</metadata>
<g transform="translate(0.000000,16.000000) scale(0.002837,-0.002837)"
fill="#000000" stroke="none">
<path d="M0 2815 l0 -2815 158 0 157 0 0 2570 c0 1413 3 2566 7 2562 3 -4 24
-61 47 -127 67 -200 201 -596 361 -1065 239 -703 361 -1060 381 -1123 18 -57
19 -111 19 -1438 l0 -1380 157 3 157 3 0 914 0 914 22 -64 c41 -119 304 -892
386 -1134 45 -132 112 -328 148 -435 l67 -195 189 -3 189 -2 87 257 c200 595
283 833 288 833 3 0 22 -48 42 -107 20 -60 98 -288 173 -508 76 -220 142 -417
147 -437 l10 -38 192 0 191 1 42 127 c23 70 86 260 142 422 187 552 399 1175
419 1230 l19 55 -1 -905 c-1 -498 0 -911 2 -917 3 -10 44 -13 158 -13 l154 0
0 48 c1 26 0 646 0 1377 l-1 1330 25 75 c13 41 95 282 181 535 211 621 345
1017 390 1150 20 61 40 119 45 130 9 21 74 216 75 225 0 3 3 10 6 15 3 6 23
63 44 128 21 64 41 117 44 117 3 0 6 -1153 6 -2562 l0 -2563 158 -3 157 -3 0
2816 0 2815 -252 0 -253 0 -33 -103 c-19 -56 -37 -111 -42 -122 -5 -11 -36
-101 -69 -200 -67 -200 -353 -1045 -425 -1254 -25 -74 -48 -136 -51 -139 -3
-3 -5 405 -5 907 l0 911 -251 -2 -252 -3 -78 -230 c-43 -126 -143 -423 -224
-660 -80 -236 -161 -475 -180 -530 -19 -55 -102 -300 -185 -545 -154 -453
-172 -507 -391 -1152 -68 -202 -127 -364 -131 -360 -6 6 -79 217 -178 512 -21
63 -102 302 -180 530 -78 228 -189 555 -246 725 -58 171 -144 423 -191 560
-46 138 -116 342 -154 455 -38 113 -69 205 -69 205 -1 0 -38 110 -84 245 l-83
245 -251 3 -252 2 -2 -912 c-3 -898 -3 -912 -21 -858 -10 30 -22 64 -27 75 -5
11 -26 70 -46 130 -60 182 -393 1159 -501 1475 l-29 85 -252 3 -252 2 0 -2815z
m1627 1805 c91 -267 173 -510 183 -540 10 -30 86 -255 170 -500 214 -630 308
-906 385 -1135 36 -110 71 -209 75 -220 5 -11 54 -153 108 -315 l99 -295 -25
-70 c-21 -59 -221 -647 -323 -950 -28 -82 -48 -129 -49 -114 0 6 -48 148 -278
824 -82 242 -175 517 -206 610 -32 94 -60 177 -63 185 -3 8 -62 179 -131 380
l-125 365 -2 1154 c-1 709 2 1145 8 1130 5 -13 83 -242 174 -509z m2568 -632
l-1 -1143 -153 -445 c-84 -245 -166 -483 -181 -530 -16 -47 -95 -278 -175
-515 -80 -236 -180 -531 -222 -655 -42 -124 -77 -226 -77 -227 -1 -1 -38 102
-81 230 -43 128 -131 386 -195 574 l-116 341 67 199 c37 109 136 398 219 643
290 854 331 976 400 1180 38 113 119 351 180 530 61 179 159 468 218 642 59
175 110 318 113 318 3 0 5 -514 4 -1142z"/>
</g>
</svg>
